<svg width="8" height="20" viewBox="0 0 8 20" fill="none" xmlns="http://www.w3.org/2000/svg">
<path d="M5.13125 7.3875C5.13125 8.33125 5.13125 9.48125 3.83125 9.95C5.1625 10.4062 5.13125 11.375 5.13125 12.3875V16.1375C5.13125 16.85 5.41875 17.2812 5.93125 17.3875C6.04388 17.4255 6.1625 17.4425 6.28125 17.4375H7.53125V19.9375H5.46875C3.26875 19.9375 2.05625 18.6875 2.05625 16.3688V11.9313C2.04065 11.7034 1.9402 11.4898 1.77473 11.3324C1.60927 11.175 1.39081 11.0854 1.1625 11.0813H0.625V8.8875H1.1625C1.39537 8.88442 1.61811 8.79183 1.78453 8.62892C1.95093 8.466 2.04824 8.24525 2.05625 8.0125V3.5125C2.05625 1.23125 3.24375 0 5.46875 0H7.55V2.4625H6.3C6.18113 2.46285 6.063 2.48183 5.95 2.51875C5.4375 2.65 5.15 3.075 5.15 3.76875L5.13125 7.3875Z" fill="#111111"/>
</svg>
