<svg width="149" height="32" viewBox="0 0 149 32" fill="none" xmlns="http://www.w3.org/2000/svg">
<g clip-path="url(#clip0_83_663)">
<path d="M141.926 0.296387H6.22231C2.94951 0.296387 0.296387 2.94951 0.296387 6.22231V25.7779C0.296387 29.0507 2.94951 31.7038 6.22231 31.7038H141.926C145.199 31.7038 147.852 29.0507 147.852 25.7779V6.22231C147.852 2.94951 145.199 0.296387 141.926 0.296387Z" fill="white" stroke="#EA532A" stroke-width="0.592593"/>
<path d="M34.5353 8.3597H32.6108V9.24251H34.2957V9.90918H32.6108V11.5186H31.814V7.68522H34.5353V8.3597ZM37.7463 9.84147H35.8817V10.8285H38.0067V11.5186H35.0978V7.68001H37.9129V8.3597H35.8817V9.1748H37.7463V9.84147ZM40.8791 10.7295H39.465L39.1994 11.5186H38.3608L39.7306 7.68001H40.6369L41.9963 11.5186H41.1265L40.8791 10.7295ZM40.6551 10.068L40.1759 8.55762L39.6812 10.068H40.6551ZM44.8791 7.68001V8.3597H43.7306V11.5186H42.9233V8.3597H41.7697V7.68001H44.8791ZM47.6213 10.0394V7.68001H48.4364V10.0394C48.4364 10.4474 48.373 10.7651 48.2463 10.9925C48.0101 11.4092 47.5596 11.6175 46.8947 11.6175C46.2298 11.6175 45.7784 11.4092 45.5405 10.9925C45.4138 10.7651 45.3504 10.4474 45.3504 10.0394V7.68001H46.1655V10.0394C46.1655 10.3033 46.1968 10.496 46.2593 10.6175C46.3565 10.8328 46.5683 10.9404 46.8947 10.9404C47.2193 10.9404 47.4303 10.8328 47.5275 10.6175C47.59 10.496 47.6213 10.3033 47.6213 10.0394ZM50.8348 10.0133H50.0067V11.5186H49.2228V7.68001H51.1056C51.3747 7.68522 51.5813 7.71821 51.7254 7.77897C51.8713 7.83974 51.9945 7.92914 52.0952 8.0472C52.1785 8.14442 52.2445 8.25206 52.2931 8.37012C52.3417 8.48817 52.366 8.62272 52.366 8.77376C52.366 8.95605 52.32 9.13574 52.228 9.31283C52.136 9.48817 51.9841 9.6123 51.7723 9.68522C51.9494 9.7564 52.0744 9.85796 52.1473 9.98991C52.222 10.1201 52.2593 10.3198 52.2593 10.5889V10.8467C52.2593 11.022 52.2662 11.141 52.2801 11.2035C52.3009 11.3024 52.3496 11.3753 52.4259 11.4222V11.5186H51.5431C51.5188 11.4335 51.5015 11.3649 51.491 11.3128C51.4702 11.2052 51.4589 11.0949 51.4572 10.9821L51.452 10.6253C51.4485 10.3805 51.4034 10.2173 51.3166 10.1357C51.2315 10.0541 51.0709 10.0133 50.8348 10.0133ZM51.3218 9.31543C51.4815 9.24251 51.5614 9.09842 51.5614 8.88314C51.5614 8.6505 51.4841 8.49425 51.3296 8.41439C51.2428 8.36925 51.1126 8.34668 50.939 8.34668H50.0067V9.37793H50.9155C51.0961 9.37793 51.2315 9.3571 51.3218 9.31543ZM55.7306 9.84147H53.866V10.8285H55.991V11.5186H53.0822V7.68001H55.8973V8.3597H53.866V9.1748H55.7306V9.84147ZM58.2697 11.5186H56.616V7.68001H58.2697C58.5075 7.68349 58.7055 7.71126 58.8634 7.76335C59.1325 7.85189 59.3504 8.01421 59.5171 8.25033C59.6508 8.4413 59.7419 8.64789 59.7905 8.87012C59.8391 9.09234 59.8634 9.30414 59.8634 9.50553C59.8634 10.016 59.761 10.4482 59.5562 10.8024C59.2784 11.2798 58.8496 11.5186 58.2697 11.5186ZM58.866 8.65918C58.7428 8.45085 58.4989 8.34668 58.1343 8.34668H57.3947V10.8519H58.1343C58.5128 10.8519 58.7766 10.6653 58.9259 10.292C59.0075 10.0871 59.0483 9.84321 59.0483 9.56022C59.0483 9.1696 58.9876 8.86925 58.866 8.65918ZM63.6525 11.6253C63.1039 11.6253 62.6846 11.476 62.3947 11.1774C62.0058 10.8111 61.8114 10.2833 61.8114 9.59408C61.8114 8.89095 62.0058 8.36317 62.3947 8.01074C62.6846 7.71213 63.1039 7.56283 63.6525 7.56283C64.2011 7.56283 64.6204 7.71213 64.9103 8.01074C65.2975 8.36317 65.491 8.89095 65.491 9.59408C65.491 10.2833 65.2975 10.8111 64.9103 11.1774C64.6204 11.476 64.2011 11.6253 63.6525 11.6253ZM64.4103 10.5941C64.5961 10.3597 64.689 10.0264 64.689 9.59408C64.689 9.16352 64.5952 8.83105 64.4077 8.59668C64.222 8.36057 63.9702 8.24251 63.6525 8.24251C63.3348 8.24251 63.0813 8.3597 62.8921 8.59408C62.7029 8.82845 62.6082 9.16178 62.6082 9.59408C62.6082 10.0264 62.7029 10.3597 62.8921 10.5941C63.0813 10.8285 63.3348 10.9456 63.6525 10.9456C63.9702 10.9456 64.2228 10.8285 64.4103 10.5941ZM69.2098 11.5186H68.4077L66.84 8.79199V11.5186H66.0926V7.68001H66.9338L68.4624 10.3597V7.68001H69.2098V11.5186Z" fill="#EA532A"/>
<path d="M35.5667 19.0388H33.6648V22.2593H31.8054V13.3027H35.7064C36.6057 13.3027 37.3228 13.5336 37.8575 13.9954C38.3922 14.4572 38.6596 15.1722 38.6596 16.1404C38.6596 17.1976 38.3922 17.945 37.8575 18.3825C37.3228 18.82 36.5592 19.0388 35.5667 19.0388ZM36.4417 17.1733C36.6847 16.9586 36.8063 16.6184 36.8063 16.1525C36.8063 15.6866 36.6827 15.3545 36.4356 15.156C36.1925 14.9575 35.8502 14.8582 35.4087 14.8582H33.6648V17.4954H35.4087C35.8502 17.4954 36.1946 17.388 36.4417 17.1733ZM43.2533 17.2341C42.5566 17.2341 42.0887 17.461 41.8497 17.9147C41.716 18.1699 41.6491 18.5628 41.6491 19.0935V22.2593H39.9052V15.636H41.558V16.7905C41.8254 16.349 42.0583 16.0472 42.2568 15.8851C42.5809 15.6137 43.0022 15.478 43.5207 15.478C43.5531 15.478 43.5794 15.4801 43.5997 15.4841C43.624 15.4841 43.6746 15.4861 43.7516 15.4902V17.2645C43.6422 17.2523 43.545 17.2442 43.4599 17.2402C43.3748 17.2361 43.306 17.2341 43.2533 17.2341ZM50.2958 16.4746C50.8549 17.1754 51.1344 18.0038 51.1344 18.9598C51.1344 19.932 50.8549 20.7645 50.2958 21.4572C49.7368 22.1459 48.8881 22.4902 47.7498 22.4902C46.6115 22.4902 45.7629 22.1459 45.2038 21.4572C44.6448 20.7645 44.3653 19.932 44.3653 18.9598C44.3653 18.0038 44.6448 17.1754 45.2038 16.4746C45.7629 15.7737 46.6115 15.4233 47.7498 15.4233C48.8881 15.4233 49.7368 15.7737 50.2958 16.4746ZM47.7438 16.8877C47.2374 16.8877 46.8465 17.068 46.571 17.4285C46.2996 17.785 46.1639 18.2954 46.1639 18.9598C46.1639 19.6241 46.2996 20.1366 46.571 20.4971C46.8465 20.8577 47.2374 21.0379 47.7438 21.0379C48.2501 21.0379 48.639 20.8577 48.9104 20.4971C49.1818 20.1366 49.3175 19.6241 49.3175 18.9598C49.3175 18.2954 49.1818 17.785 48.9104 17.4285C48.639 17.068 48.2501 16.8877 47.7438 16.8877ZM58.4078 13.3148V22.2593H56.7247V21.3417C56.4776 21.7347 56.196 22.0203 55.88 22.1985C55.5641 22.3768 55.1711 22.4659 54.7012 22.4659C53.9275 22.4659 53.2753 22.154 52.7446 21.5301C52.218 20.9022 51.9547 20.0981 51.9547 19.1178C51.9547 17.9876 52.214 17.0984 52.7325 16.4502C53.255 15.8021 53.9518 15.478 54.8228 15.478C55.2238 15.478 55.5803 15.5671 55.8922 15.7454C56.2041 15.9196 56.4573 16.1626 56.6517 16.4746V13.3148H58.4078ZM53.7412 18.9902C53.7412 19.6019 53.8627 20.09 54.1057 20.4546C54.3447 20.8232 54.7093 21.0075 55.1995 21.0075C55.6897 21.0075 56.0623 20.8252 56.3175 20.4607C56.5728 20.0961 56.7004 19.6241 56.7004 19.0449C56.7004 18.2347 56.4958 17.6554 56.0866 17.307C55.8355 17.0964 55.5438 16.991 55.2116 16.991C54.7053 16.991 54.3326 17.1835 54.0936 17.5683C53.8586 17.9491 53.7412 18.4231 53.7412 18.9902ZM64.2351 21.3235C64.2189 21.3438 64.1784 21.4045 64.1136 21.5058C64.0487 21.6071 63.9718 21.6962 63.8827 21.7732C63.6112 22.0162 63.3479 22.1823 63.0927 22.2714C62.8416 22.3606 62.5458 22.4051 62.2056 22.4051C61.2252 22.4051 60.5649 22.0527 60.2247 21.3478C60.0343 20.9589 59.9391 20.3857 59.9391 19.6282V15.636H61.7134V19.6282C61.7134 20.0049 61.7579 20.2885 61.8471 20.4789C62.005 20.8151 62.3149 20.9832 62.7767 20.9832C63.3682 20.9832 63.7733 20.7442 63.992 20.2662C64.1055 20.007 64.1622 19.6647 64.1622 19.2393V15.636H65.9182V22.2593H64.2351V21.3235ZM73.3254 18.0119H71.5511C71.5186 17.7648 71.4356 17.542 71.3019 17.3435C71.1075 17.0761 70.8057 16.9424 70.3965 16.9424C69.8132 16.9424 69.4142 17.2321 69.1995 17.8114C69.0861 18.1192 69.0294 18.5284 69.0294 19.0388C69.0294 19.5249 69.0861 19.9158 69.1995 20.2115C69.4061 20.7625 69.795 21.0379 70.3662 21.0379C70.7712 21.0379 71.0589 20.9285 71.229 20.7098C71.3991 20.491 71.5024 20.2075 71.5389 19.8591H73.3071C73.2666 20.3857 73.0762 20.884 72.7359 21.3539C72.1931 22.1114 71.389 22.4902 70.3236 22.4902C69.2582 22.4902 68.4744 22.1742 67.9721 21.5423C67.4697 20.9103 67.2186 20.09 67.2186 19.0813C67.2186 17.943 67.4961 17.0579 68.0511 16.4259C68.606 15.794 69.3717 15.478 70.3479 15.478C71.1784 15.478 71.8569 15.6644 72.3835 16.0371C72.9142 16.4097 73.2281 17.068 73.3254 18.0119ZM77.5545 21.0258V22.32L76.7342 22.3504C75.9159 22.3788 75.3569 22.237 75.0571 21.9251C74.8627 21.7266 74.7655 21.4207 74.7655 21.0075V16.9303H73.8419V15.6968H74.7655V13.8496H76.479V15.6968H77.5545V16.9303H76.479V20.4303C76.479 20.7017 76.5134 20.8718 76.5823 20.9407C76.6512 21.0055 76.8618 21.0379 77.2142 21.0379C77.2669 21.0379 77.3216 21.0379 77.3783 21.0379C77.4391 21.0339 77.4978 21.0298 77.5545 21.0258ZM87.611 22.2593V18.261H84.111V22.2593H82.2577V13.3027H84.111V16.7176H87.611V13.3027H89.4703V22.2593H87.611ZM95.3705 21.3235C95.3543 21.3438 95.3138 21.4045 95.249 21.5058C95.1842 21.6071 95.1072 21.6962 95.0181 21.7732C94.7467 22.0162 94.4833 22.1823 94.2281 22.2714C93.977 22.3606 93.6813 22.4051 93.341 22.4051C92.3607 22.4051 91.7004 22.0527 91.3601 21.3478C91.1697 20.9589 91.0745 20.3857 91.0745 19.6282V15.636H92.8488V19.6282C92.8488 20.0049 92.8934 20.2885 92.9825 20.4789C93.1405 20.8151 93.4504 20.9832 93.9122 20.9832C94.5036 20.9832 94.9087 20.7442 95.1274 20.2662C95.2409 20.007 95.2976 19.6647 95.2976 19.2393V15.636H97.0537V22.2593H95.3705V21.3235ZM101.848 16.9181C101.261 16.9181 100.857 17.1673 100.639 17.6655C100.525 17.9288 100.469 18.2651 100.469 18.6742V22.2593H98.7429V15.6482H100.414V16.6143C100.637 16.274 100.847 16.029 101.046 15.8791C101.402 15.6117 101.854 15.478 102.401 15.478C103.085 15.478 103.645 15.6583 104.078 16.0188C104.515 16.3753 104.734 16.9688 104.734 17.7992V22.2593H102.96V18.2306C102.96 17.8823 102.913 17.6149 102.82 17.4285C102.65 17.0883 102.326 16.9181 101.848 16.9181ZM109.37 21.0258V22.32L108.55 22.3504C107.732 22.3788 107.173 22.237 106.873 21.9251C106.679 21.7266 106.581 21.4207 106.581 21.0075V16.9303H105.658V15.6968H106.581V13.8496H108.295V15.6968H109.37V16.9303H108.295V20.4303C108.295 20.7017 108.329 20.8718 108.398 20.9407C108.467 21.0055 108.678 21.0379 109.03 21.0379C109.083 21.0379 109.138 21.0379 109.194 21.0379C109.255 21.0339 109.314 21.0298 109.37 21.0258Z" fill="#EA532A"/>
<path fill-rule="evenodd" clip-rule="evenodd" d="M134.52 13.6295H128L131.26 7.70361L134.52 13.6295Z" fill="#EA532A"/>
<path d="M127.897 19.2986C127.611 19.7049 127.371 20.1236 127.178 20.555C127.025 20.8935 126.887 21.3073 126.765 21.7963C126.642 22.2853 126.58 22.6865 126.58 23H125.467C125.499 22.022 125.82 21.0051 126.43 19.9494C126.824 19.2948 127.153 18.8384 127.419 18.5802H124.7L124.715 17.6172H128.566V18.456C128.406 18.614 128.183 18.8949 127.897 19.2986ZM131.147 19.4604C131.631 19.4604 132.027 19.6246 132.336 19.9531C132.646 20.2816 132.802 20.7017 132.802 21.2133C132.802 21.7223 132.65 22.1712 132.347 22.5599C132.043 22.9486 131.572 23.1429 130.932 23.1429C130.245 23.1429 129.739 22.8558 129.413 22.2815C129.159 21.8327 129.033 21.2534 129.033 20.5437C129.033 20.1274 129.05 19.7889 129.086 19.5281C129.148 19.0641 129.27 18.678 129.45 18.3695C129.606 18.1062 129.809 17.8943 130.06 17.7338C130.313 17.5733 130.615 17.4931 130.966 17.4931C131.473 17.4931 131.877 17.6235 132.178 17.8843C132.478 18.1426 132.648 18.4874 132.685 18.9187H131.617C131.617 18.8309 131.583 18.7344 131.515 18.6291C131.4 18.4585 131.226 18.3733 130.993 18.3733C130.644 18.3733 130.396 18.5689 130.248 18.9601C130.168 19.1757 130.112 19.4942 130.082 19.9155C130.215 19.7575 130.369 19.6422 130.545 19.5694C130.721 19.4967 130.921 19.4604 131.147 19.4604ZM130.425 20.4835C130.214 20.6465 130.109 20.9098 130.109 21.2734C130.109 21.5668 130.188 21.8063 130.346 21.9919C130.504 22.1775 130.704 22.2703 130.947 22.2703C131.186 22.2703 131.373 22.1812 131.508 22.0032C131.646 21.8226 131.715 21.5894 131.715 21.3035C131.715 20.9851 131.637 20.7418 131.482 20.5738C131.326 20.4033 131.136 20.318 130.91 20.318C130.727 20.318 130.565 20.3732 130.425 20.4835ZM135.134 20.2917C135.004 20.2917 134.891 20.308 134.796 20.3406C134.628 20.4008 134.501 20.5123 134.416 20.6753L133.453 20.6302L133.836 17.6172H136.842V18.5275H134.611L134.416 19.7199C134.581 19.6121 134.71 19.5406 134.803 19.5055C134.959 19.4478 135.148 19.419 135.371 19.419C135.822 19.419 136.216 19.5707 136.552 19.8741C136.888 20.1776 137.056 20.6189 137.056 21.1982C137.056 21.7023 136.895 22.1524 136.571 22.5486C136.248 22.9448 135.764 23.1429 135.119 23.1429C134.6 23.1429 134.174 23.0038 133.84 22.7254C133.507 22.447 133.321 22.0521 133.283 21.5405H134.352C134.394 21.7737 134.476 21.9543 134.596 22.0822C134.717 22.2076 134.892 22.2703 135.123 22.2703C135.389 22.2703 135.591 22.1775 135.728 21.9919C135.869 21.8038 135.939 21.5681 135.939 21.2847C135.939 21.0064 135.874 20.7719 135.743 20.5813C135.613 20.3882 135.41 20.2917 135.134 20.2917Z" fill="#EA532A"/>
<path fill-rule="evenodd" clip-rule="evenodd" d="M24.8889 16.2965C24.8889 21.3693 20.7766 25.4817 15.7037 25.4817C10.6309 25.4817 6.51855 21.3693 6.51855 16.2965C6.51855 11.2237 10.6309 7.11133 15.7037 7.11133C20.7766 7.11133 24.8889 11.2237 24.8889 16.2965Z" fill="#EA532A"/>
<path fill-rule="evenodd" clip-rule="evenodd" d="M16.8492 16.5667V16.5668H14.2773V13.8112H16.8492V13.8112C17.6012 13.8112 18.2108 14.428 18.2108 15.1889C18.2108 15.9499 17.6012 16.5667 16.8492 16.5667ZM16.8492 11.9741V11.9742L12.4619 11.9741V21.1593H14.2773V18.4038H16.8492V18.4038C18.6038 18.4038 20.0262 16.9644 20.0262 15.1889C20.0262 13.4134 18.6038 11.9741 16.8492 11.9741Z" fill="white"/>
</g>
<defs>
<clipPath id="clip0_83_663">
<rect width="148.148" height="32" fill="white"/>
</clipPath>
</defs>
</svg>
