<svg width="93" height="19" viewBox="0 0 93 19" fill="none" xmlns="http://www.w3.org/2000/svg">
<g clip-path="url(#clip0_354_562)">
<path d="M92.8354 14.5114V16.833H90.9047C88.8446 16.7677 87.7439 15.6455 87.7439 13.5377V8.23551H86.396V6.19895H87.7439V3.91895H90.5928V6.1752H92.7706V8.20582H90.5928V13.2527C90.5928 13.9355 90.7282 14.4818 91.77 14.4818L92.8354 14.5114Z" fill="#111111"/>
<path d="M75.0415 11.5363V11.382C75.0105 10.6991 75.1137 10.0167 75.3448 9.37409C75.576 8.73145 75.9307 8.14115 76.3883 7.63701C76.8458 7.13288 77.3975 6.72478 78.012 6.43617C78.6265 6.14753 79.2913 5.98405 79.9682 5.95508C80.1035 5.95508 80.2448 5.95508 80.3802 5.95508C83.0701 5.95508 85.4304 7.53445 85.4304 11.2988V12.1004H77.9551C78.0316 13.8341 78.9616 14.8138 80.5273 14.8138C81.8752 14.8138 82.5051 14.2201 82.6875 13.3532H85.3775C85.0478 15.6154 83.2585 16.8741 80.4273 16.8741C77.3194 16.8504 75.0415 14.8673 75.0415 11.5363ZM82.6287 10.2835C82.5286 8.70414 81.7399 7.94414 80.3684 7.94414C78.997 7.94414 78.2082 8.79914 78.014 10.2835H82.6287Z" fill="#111111"/>
<path d="M63.4107 11.5363V11.382C63.3797 10.7 63.4825 10.0186 63.7128 9.37674C63.9432 8.73486 64.2967 8.14507 64.7531 7.64105C65.2095 7.13708 65.76 6.72873 66.3729 6.43946C66.9859 6.15018 67.6494 5.98556 68.3255 5.95508C68.4609 5.95508 68.6022 5.95508 68.7376 5.95508C71.4275 5.95508 73.7937 7.53445 73.7937 11.2988V12.1004H66.3243C66.4008 13.8341 67.3308 14.8138 68.8965 14.8138C70.2444 14.8138 70.8742 14.2201 71.0567 13.3532H73.7466C73.4111 15.6154 71.6217 16.8741 68.7905 16.8741C65.6886 16.8504 63.4107 14.8673 63.4107 11.5363ZM70.9978 10.2835C70.8978 8.70414 70.109 7.94414 68.7376 7.94414C67.3661 7.94414 66.6009 8.82289 66.3831 10.2776L70.9978 10.2835Z" fill="#111111"/>
<path d="M47.0884 6.1748H50.1021L51.9444 13.2167L53.9633 6.1748H56.3177L58.1424 13.2167L60.0848 6.1748H62.8454L59.5727 16.6367H56.7474L54.9816 10.0698L53.0922 16.6367H50.2315L47.0884 6.1748Z" fill="#111111"/>
<path d="M37.5117 13.3476H40.2017C40.3253 14.2916 40.7903 14.832 42.0263 14.832C43.1329 14.832 43.645 14.4104 43.645 13.692C43.645 12.9735 43.0564 12.6707 41.5496 12.457C38.789 12.0354 37.7236 11.2338 37.7236 9.19133C37.7236 7.01227 39.7013 5.93164 41.8439 5.93164C44.1453 5.93164 45.8817 6.77477 46.1289 9.17945H43.4743C43.4574 8.99353 43.4041 8.81287 43.3174 8.64785C43.231 8.48287 43.1129 8.3368 42.9701 8.21809C42.8272 8.09938 42.6624 8.01044 42.4855 7.95633C42.3081 7.90222 42.1221 7.88405 41.938 7.90289H41.8498C40.9198 7.90289 40.3782 8.34227 40.3782 8.98352C40.3782 9.62477 40.8786 9.90383 42.3972 10.1235C44.9753 10.5154 46.4174 11.1745 46.4174 13.4129C46.4174 15.6513 44.7869 16.8507 42.0558 16.8507C39.3246 16.8507 37.5882 15.6098 37.5117 13.3476Z" fill="#111111"/>
<path d="M26.0811 6.17514H28.9299V7.8317C29.251 7.22366 29.7384 6.72139 30.3342 6.38461C30.93 6.0478 31.6091 5.89061 32.2909 5.9317C34.3098 5.9317 35.7754 7.17264 35.7754 10.0048V16.6608H32.9619V10.4205C32.9619 9.00139 32.4145 8.32451 31.1431 8.32451C30.8744 8.30092 30.6036 8.33108 30.3465 8.4133C30.0894 8.49551 29.8509 8.62812 29.6447 8.80355C29.4385 8.97902 29.2687 9.1938 29.145 9.43562C29.0214 9.67739 28.9463 9.94149 28.924 10.2126C28.9093 10.3389 28.9093 10.4664 28.924 10.5926V16.637H26.0811V6.17514Z" fill="#111111"/>
<path d="M20.5835 3.54483C20.5731 3.25831 20.6473 2.97514 20.7966 2.73117C20.9459 2.4872 21.1637 2.29341 21.4222 2.17433C21.6808 2.05524 21.9685 2.01623 22.2491 2.06222C22.5296 2.1082 22.7904 2.23713 22.9982 2.43267C23.2061 2.62821 23.3518 2.88157 23.4168 3.16068C23.4818 3.43979 23.4633 3.73208 23.3636 4.00056C23.2639 4.26905 23.0874 4.50164 22.8566 4.66888C22.6257 4.83616 22.3508 4.93057 22.0668 4.94015H22.0138C21.8375 4.95139 21.6607 4.92744 21.4936 4.86961C21.3265 4.81182 21.1723 4.72125 21.04 4.60321C20.9077 4.48517 20.7997 4.34192 20.7224 4.18169C20.6451 4.02146 20.5998 3.84741 20.5894 3.66952C20.5844 3.62815 20.5825 3.58649 20.5835 3.54483ZM20.5835 6.17515H23.4618V16.637H20.5952L20.5835 6.17515Z" fill="#111111"/>
<path d="M9.73535 2.33936H18.8352V4.87467H12.9491V8.65686H17.6109V11.0972H12.9433V16.6369H9.73535V2.33936Z" fill="#111111"/>
<path d="M4.24386 7.01813C4.24386 7.91469 4.24386 9.00719 3.01956 9.4525C4.27329 9.88594 4.24386 10.8063 4.24386 11.7681V15.3306C4.24386 16.0075 4.51462 16.4172 4.99728 16.5181C5.10335 16.5542 5.21506 16.5703 5.3269 16.5656H6.50411V18.9406H4.56171C2.48981 18.9406 1.34791 17.7531 1.34791 15.5503V11.3347C1.33322 11.1182 1.23861 10.9153 1.08278 10.7658C0.926955 10.6163 0.721221 10.5311 0.506203 10.5272H0V8.44313H0.506203C0.72551 8.4402 0.935286 8.35224 1.09201 8.19747C1.24873 8.0427 1.34037 7.83299 1.34791 7.61188V3.33688C1.34791 1.16969 2.46627 0 4.56171 0H6.52177V2.33938H5.34456C5.2326 2.3397 5.12136 2.35773 5.01494 2.39281C4.53228 2.5175 4.26152 2.92125 4.26152 3.58031L4.24386 7.01813Z" fill="#111111"/>
</g>
<defs>
<clipPath id="clip0_354_562">
<rect width="93" height="19" fill="white"/>
</clipPath>
</defs>
</svg>
