<svg width="48" height="48" viewBox="0 0 48 48" fill="none" xmlns="http://www.w3.org/2000/svg">
<path d="M22.65 24.15L35.7 37.2C32.25 40.65 27.6 42.6 22.8 42.6C18 42.6 13.35 40.65 9.9 37.2C6.45 33.75 4.5 29.1 4.5 24.3C4.5 19.5 6.45 14.85 9.9 11.4C13.35 7.95 18 6 22.8 6C27.6 6 32.25 7.95 35.7 11.4L22.65 24.15Z" fill="#73CCEF"/>
<path d="M22.65 3C27.75 3 32.7 4.8 36.6 8.1L21.6 23.1L20.55 24.15L21.6 25.2L36.6 40.2C32.7 43.5 27.75 45.3 22.65 45.3C19.8 45.3 17.1 44.85 14.55 43.65C12 42.6 9.6 41.1 7.65 39C5.7 37.05 4.05 34.65 3 32.1C1.95 29.7 1.5 27 1.5 24.15C1.5 21.3 1.95 18.6 3.15 16.05C4.2 13.5 5.7 11.1 7.65 9.15C9.6 7.2 12 5.7 14.55 4.65C17.1 3.45 19.95 3 22.65 3ZM22.65 1.5C19.65 1.5 16.65 2.1 13.95 3.15C11.25 4.35 8.7 6 6.6 8.1C2.4 12.45 0 18.15 0 24.15C0 30.15 2.4 36 6.6 40.2C8.7 42.3 11.25 43.95 13.95 45.15C16.65 46.35 19.65 46.8 22.65 46.8C25.65 46.8 28.65 46.2 31.35 45.15C34.05 43.95 36.6 42.3 38.7 40.2L22.65 24.15L38.7 8.1C36.6 6 34.05 4.35 31.35 3.15C28.65 2.1 25.65 1.5 22.65 1.5Z" fill="black"/>
<path d="M31.5 27C33.15 27 34.5 25.65 34.5 24C34.5 22.35 33.15 21 31.5 21C29.85 21 28.5 22.35 28.5 24C28.5 25.65 29.85 27 31.5 27Z" fill="black"/>
<path d="M19.5 16.5C21.15 16.5 22.5 15.15 22.5 13.5C22.5 11.85 21.15 10.5 19.5 10.5C17.85 10.5 16.5 11.85 16.5 13.5C16.5 15.15 17.85 16.5 19.5 16.5Z" fill="black"/>
<path d="M42 27C43.65 27 45 25.65 45 24C45 22.35 43.65 21 42 21C40.35 21 39 22.35 39 24C39 25.65 40.35 27 42 27Z" fill="black"/>
</svg>
