<svg width="48" height="48" viewBox="0 0 48 48" fill="none" xmlns="http://www.w3.org/2000/svg">
<g clip-path="url(#clip0_81_387)">
<path d="M48 27H33V48H48V27Z" fill="#F24E1E"/>
<path d="M22.5 22.5H4.5V43.5H22.5V22.5Z" fill="#F24E1E"/>
<path d="M26.25 18.75H0.75V47.25H26.25V18.75Z" stroke="#111111"/>
<path d="M13.5 14.25C17.2279 14.25 20.25 11.2279 20.25 7.5C20.25 3.77208 17.2279 0.75 13.5 0.75C9.77208 0.75 6.75 3.77208 6.75 7.5C6.75 11.2279 9.77208 14.25 13.5 14.25Z" stroke="#111111"/>
<path d="M40.5 23.25C43.3995 23.25 45.75 20.8995 45.75 18C45.75 15.1005 43.3995 12.75 40.5 12.75C37.6005 12.75 35.25 15.1005 35.25 18C35.25 20.8995 37.6005 23.25 40.5 23.25Z" stroke="#111111"/>
</g>
<defs>
<clipPath id="clip0_81_387">
<rect width="48" height="48" fill="white"/>
</clipPath>
</defs>
</svg>
